<svg xmlns="http://www.w3.org/2000/svg" xmlns:xlink="http://www.w3.org/1999/xlink" id="Layer_1" x="0px" y="0px" viewBox="0 0 505.9 566.9" style="enable-background:new 0 0 505.9 566.9;" xml:space="preserve"><style type="text/css">	.st0{fill:#004876;}	.st1{fill:#32A5DC;}</style><g>	<path class="st0" d="M123.3,189l119.5-69c6.3-3.6,14-3.6,20.2,0l119.5,69L487,128.8L273.5,5.5c-12.7-7.3-28.3-7.3-41,0L18.9,128.8  L123.3,189z"></path>	<path class="st0" d="M114.5,377.4c-6.3-3.6-10.1-10.3-10.1-17.5l0-138L0,161.6l0,246.6c0,14.6,7.8,28.2,20.5,35.5L234,566.9  l0-120.5L114.5,377.4z"></path></g><g>	<path class="st1" d="M401.5,359.9c0,7.2-3.9,13.9-10.1,17.5l-119.5,69l0,120.5l213.5-123.3c12.7-7.3,20.5-20.8,20.5-35.5l0-246.6  l-104.4,60.3L401.5,359.9z"></path>	<path class="st1" d="M216.4,285.8c0-20.2,16.3-36.5,36.5-36.5c20.2,0,36.5,16.4,36.5,36.5c0,20.2-16.3,36.5-36.5,36.5  C232.8,322.3,216.4,305.9,216.4,285.8"></path></g><g>	<g>		<polygon class="st0" points="459.5,66 459.5,61.8 478.1,61.8 478.1,66 471.3,66 471.3,84.5 466.3,84.5 466.3,66   "></polygon>	</g>	<g>		<polygon class="st0" points="488.5,61.8 493.8,77.4 493.9,77.4 498.9,61.8 505.9,61.8 505.9,84.5 501.3,84.5 501.3,68.4    501.2,68.4 495.6,84.5 491.8,84.5 486.2,68.6 486.2,68.6 486.2,84.5 481.5,84.5 481.5,61.8   "></polygon>	</g></g></svg>